<svg xmlns="http://www.w3.org/2000/svg" viewBox="0 0 661.75 255.07"><defs><style>.cls-1,.cls-3{fill:none;}.cls-1,.cls-3,.cls-4{stroke:#231f20;}.cls-1,.cls-3,.cls-4,.cls-5{stroke-miterlimit:10;}.cls-1{stroke-width:2px;}.cls-2,.cls-4,.cls-6{fill:#231f20;}.cls-5{fill:#ed1c24;stroke:#ed1c24;}.cls-6{font-size:12px;font-family:MyriadPro-Regular, Myriad Pro;}.cls-7{letter-spacing:-0.01em;}.cls-8{letter-spacing:-0.01em;}.cls-9{letter-spacing:0.02em;}.cls-10{letter-spacing:-0.01em;}.cls-11{letter-spacing:0em;}.cls-12{letter-spacing:-0.01em;}.cls-13{letter-spacing:-0.07em;}.cls-14{letter-spacing:0em;}.cls-15{letter-spacing:1.51em;}.cls-16{letter-spacing:0em;}.cls-17{letter-spacing:0em;}.cls-18{letter-spacing:0em;}</style></defs><title>individualized-parcelation</title><g id="Layer_2" data-name="Layer 2"><g id="Layer_1-2" data-name="Layer 1"><path class="cls-1" d="M83.79,9.59c16.82-5.95,72.63,54.14,61.54,112.82C138.63,157.86,108,190,92.76,185.23,79.24,181,78.61,148.19,77.38,84,76.46,36.22,76,12.35,83.79,9.59Z"/><ellipse class="cls-1" cx="77.18" cy="100.35" rx="76.18" ry="99.35"/><path class="cls-2" d="M57.49,186.7c-3.49,0-7.53-1.33-11.88-3.94-14.8-8.89-33.3-33-38.43-60.16-4.56-24.1,2.4-46.53,9-61.1,7.63-16.75,19.42-32.94,31.53-43.33C56.87,10.34,65,6.87,70,8.65c8.47,3,8,25.66,7.08,75.31-1.25,65.12-1.88,97.8-16.09,102.23A11.91,11.91,0,0,1,57.49,186.7ZM67.13,10.18c-4.44,0-11,3.39-18.09,9.51-11.9,10.2-23.49,26.15-31,42.64-6.51,14.3-13.35,36.31-8.89,59.9,5,26.59,23.07,50.15,37.5,58.82,5.4,3.24,10.17,4.36,13.78,3.23,12.84-4,13.49-38.22,14.69-100.35,0-1.9.24-11.94.48-32,.29-24.83.26-39-6.23-41.36A5.49,5.49,0,0,0,67.13,10.18Z"/><path class="cls-1" d="M253.12,10.59C270,4.64,325.75,64.73,314.66,123.41,308,158.86,277.38,191,262.1,186.23,248.58,182,248,149.19,246.71,85,245.8,37.22,245.34,13.35,253.12,10.59Z"/><ellipse class="cls-1" cx="246.51" cy="101.35" rx="76.18" ry="99.35"/><path class="cls-2" d="M226.82,187.7c-3.49,0-7.53-1.33-11.87-3.94-14.8-8.89-33.31-33-38.44-60.16-4.56-24.1,2.4-46.53,9-61.1,7.62-16.75,19.41-32.94,31.52-43.33,9.13-7.83,17.26-11.3,22.29-9.52,8.47,3,8,25.66,7.08,75.31-1.25,65.12-1.88,97.8-16.09,102.23A11.91,11.91,0,0,1,226.82,187.7Zm9.64-176.52c-4.43,0-11,3.39-18.08,9.51-11.91,10.2-23.5,26.15-31,42.64-6.52,14.3-13.35,36.31-8.9,59.9,5,26.59,23.08,50.15,37.51,58.82,5.4,3.24,10.16,4.36,13.78,3.23,12.83-4,13.49-38.22,14.68-100.35,0-1.9.25-11.94.48-32,.29-24.83.26-39-6.22-41.36A5.54,5.54,0,0,0,236.46,11.18Z"/><rect class="cls-3" x="170.33" y="2" width="152.36" height="198.71" rx="76.18" ry="76.18"/><line class="cls-3" x1="170.33" y1="167.59" x2="322.7" y2="167.59"/><line class="cls-3" x1="170.33" y1="134.47" x2="322.7" y2="134.47"/><line class="cls-3" x1="170.33" y1="101.35" x2="322.7" y2="101.35"/><line class="cls-3" x1="170.33" y1="68.24" x2="322.7" y2="68.24"/><line class="cls-3" x1="170.33" y1="35.12" x2="322.7" y2="35.12"/><line class="cls-3" x1="297.3" y1="2" x2="297.3" y2="200.71"/><line class="cls-3" x1="271.91" y1="2" x2="271.91" y2="200.71"/><line class="cls-3" x1="246.51" y1="2" x2="246.51" y2="200.71"/><line class="cls-3" x1="221.12" y1="2" x2="221.12" y2="200.71"/><line class="cls-3" x1="195.73" y1="2" x2="195.73" y2="200.71"/><rect class="cls-3" x="1" y="1" width="152.36" height="199.71" rx="76.18" ry="76.18"/><line class="cls-3" x1="1" y1="167.42" x2="153.36" y2="167.42"/><line class="cls-3" x1="1" y1="134.14" x2="153.36" y2="134.14"/><line class="cls-3" x1="1" y1="100.85" x2="153.36" y2="100.85"/><line class="cls-3" x1="1" y1="67.57" x2="153.36" y2="67.57"/><line class="cls-3" x1="1" y1="34.28" x2="153.36" y2="34.28"/><line class="cls-3" x1="127.97" y1="1" x2="127.97" y2="200.71"/><line class="cls-3" x1="102.58" y1="1" x2="102.58" y2="200.71"/><line class="cls-3" x1="77.18" y1="1" x2="77.18" y2="200.71"/><line class="cls-3" x1="51.79" y1="1" x2="51.79" y2="200.71"/><line class="cls-3" x1="26.39" y1="1" x2="26.39" y2="200.71"/><circle class="cls-4" cx="231.37" cy="20.84" r="3.38"/><circle class="cls-4" cx="204.13" cy="143.91" r="3.38"/><circle class="cls-4" cx="210.99" cy="120.02" r="3.38"/><circle class="cls-4" cx="210.99" cy="155.92" r="3.38"/><circle class="cls-4" cx="262.15" cy="20.84" r="3.38"/><circle class="cls-4" cx="255.39" cy="123.4" r="3.38"/><circle class="cls-4" cx="214.37" cy="79.46" r="3.38"/><circle class="cls-4" cx="204.13" cy="86.22" r="3.38"/><circle class="cls-4" cx="255.39" cy="79.46" r="3.38"/><circle class="cls-4" cx="207.65" cy="55.75" r="3.38"/><circle class="cls-4" cx="231.37" cy="82.84" r="3.38"/><circle class="cls-4" cx="289" cy="147.29" r="3.38"/><circle class="cls-4" cx="283.37" cy="120.02" r="3.38"/><circle class="cls-4" cx="258.77" cy="147.29" r="3.38"/><circle class="cls-4" cx="281.7" cy="59.13" r="3.38"/><circle class="cls-4" cx="258.77" cy="36.6" r="3.38"/><circle class="cls-4" cx="262.15" cy="52.37" r="3.38"/><circle class="cls-4" cx="184.62" cy="86.22" r="3.38"/><circle class="cls-4" cx="188" cy="114.79" r="3.38"/><circle class="cls-4" cx="283.37" cy="86.22" r="3.38"/><circle class="cls-4" cx="300.68" cy="111.41" r="3.38"/><circle class="cls-4" cx="231.37" cy="123.4" r="3.38"/><circle class="cls-4" cx="231.37" cy="51.84" r="3.38"/><circle class="cls-5" cx="41.66" cy="52.37" r="3.38"/><circle class="cls-5" cx="60.96" cy="52.84" r="3.38"/><circle class="cls-5" cx="62.27" cy="86.22" r="3.38"/><circle class="cls-5" cx="61.56" cy="118.17" r="3.38"/><circle class="cls-5" cx="18.66" cy="118.17" r="3.38"/><circle class="cls-5" cx="38.28" cy="152.54" r="3.38"/><circle class="cls-5" cx="38.28" cy="116.64" r="3.38"/><circle class="cls-5" cx="38.28" cy="86.22" r="3.38"/><circle class="cls-5" cx="113.83" cy="149.16" r="3.38"/><circle class="cls-5" cx="113.83" cy="118.64" r="3.38"/><circle class="cls-5" cx="87.95" cy="118.17" r="3.38"/><circle class="cls-5" cx="113.83" cy="52.84" r="3.38"/><circle class="cls-5" cx="113.83" cy="86.22" r="3.38"/><circle class="cls-5" cx="87.95" cy="150.12" r="3.38"/><circle class="cls-5" cx="88.33" cy="52.84" r="3.38"/><circle class="cls-5" cx="88.33" cy="86.22" r="3.38"/><circle class="cls-5" cx="62.27" cy="151.12" r="3.38"/><circle class="cls-5" cx="134.83" cy="118.64" r="3.38"/><circle class="cls-4" cx="227.99" cy="159.3" r="3.38"/><circle class="cls-4" cx="238.72" cy="143.91" r="3.38"/><circle class="cls-4" cx="281.16" cy="48.46" r="3.38"/><circle class="cls-4" cx="305.57" cy="89.6" r="3.38"/><circle class="cls-4" cx="276.66" cy="153.5" r="3.38"/><circle class="cls-4" cx="255.39" cy="91.95" r="3.38"/><circle class="cls-4" cx="305.57" cy="126.78" r="3.38"/><circle class="cls-4" cx="227.99" cy="110.41" r="3.38"/><circle class="cls-4" cx="255.39" cy="111.41" r="3.38"/><circle class="cls-4" cx="277.78" cy="107.03" r="3.38"/><circle class="cls-4" cx="227.99" cy="168.98" r="3.38"/><circle class="cls-4" cx="235.34" cy="42.28" r="3.38"/><circle class="cls-4" cx="214.67" cy="49.46" r="3.38"/><circle class="cls-4" cx="265.53" cy="172.36" r="3.38"/><circle class="cls-4" cx="277.78" cy="72.67" r="3.38"/><circle class="cls-4" cx="215.98" cy="133.47" r="3.38"/><circle class="cls-4" cx="212.6" cy="95.33" r="3.38"/><circle class="cls-4" cx="274.4" cy="134.47" r="3.38"/><circle class="cls-4" cx="196.72" cy="69.29" r="3.38"/><circle class="cls-4" cx="268.91" cy="92.98" r="3.38"/><circle class="cls-4" cx="300.68" cy="69.29" r="3.38"/><circle class="cls-4" cx="188" cy="134.47" r="3.38"/><path class="cls-1" d="M417.29,10.61c16.82-5.95,72.63,54.13,61.53,112.82-6.7,35.45-37.28,67.58-52.56,62.82-13.52-4.22-14.15-37-15.39-101.28C410,37.23,409.5,13.36,417.29,10.61Z"/><ellipse class="cls-1" cx="410.68" cy="101.37" rx="76.18" ry="99.35"/><path class="cls-2" d="M391,187.72c-3.5,0-7.53-1.33-11.88-3.95-14.8-8.88-33.3-33-38.44-60.16-4.55-24.1,2.4-46.53,9-61.1,7.63-16.74,19.41-32.94,31.53-43.33,9.13-7.83,17.25-11.3,22.29-9.52,8.46,3,8,25.66,7.07,75.32-1.25,65.11-1.88,97.79-16.08,102.22A11.69,11.69,0,0,1,391,187.72ZM400.62,11.2c-4.43,0-10.95,3.39-18.08,9.5-11.91,10.21-23.5,26.15-31,42.64-6.52,14.31-13.35,36.31-8.89,59.9,5,26.6,23.07,50.15,37.5,58.82,5.4,3.24,10.16,4.36,13.78,3.23,12.83-4,13.49-38.22,14.68-100.34,0-1.9.25-12,.48-32,.29-24.83.27-39-6.22-41.36A5.74,5.74,0,0,0,400.62,11.2Z"/><rect class="cls-3" x="334.5" y="2.01" width="152.36" height="198.71" rx="76.18" ry="76.18"/><line class="cls-3" x1="334.5" y1="167.6" x2="486.86" y2="167.6"/><line class="cls-3" x1="334.5" y1="134.48" x2="486.86" y2="134.48"/><line class="cls-3" x1="334.5" y1="101.37" x2="486.86" y2="101.37"/><line class="cls-3" x1="334.5" y1="68.25" x2="486.86" y2="68.25"/><line class="cls-3" x1="334.5" y1="35.13" x2="486.86" y2="35.13"/><line class="cls-3" x1="461.46" y1="2.01" x2="461.46" y2="200.72"/><line class="cls-3" x1="436.07" y1="2.01" x2="436.07" y2="200.72"/><line class="cls-3" x1="410.68" y1="2.01" x2="410.68" y2="200.72"/><line class="cls-3" x1="385.28" y1="2.01" x2="385.28" y2="200.72"/><line class="cls-3" x1="359.89" y1="2.01" x2="359.89" y2="200.72"/><circle class="cls-4" cx="395.53" cy="20.85" r="3.38"/><circle class="cls-4" cx="368.29" cy="143.93" r="3.38"/><circle class="cls-4" cx="375.15" cy="120.03" r="3.38"/><circle class="cls-4" cx="375.15" cy="155.93" r="3.38"/><circle class="cls-4" cx="426.31" cy="20.85" r="3.38"/><circle class="cls-4" cx="419.55" cy="123.41" r="3.38"/><circle class="cls-4" cx="378.53" cy="79.47" r="3.38"/><circle class="cls-4" cx="368.29" cy="86.24" r="3.38"/><circle class="cls-4" cx="419.55" cy="79.47" r="3.38"/><circle class="cls-4" cx="371.81" cy="55.76" r="3.38"/><circle class="cls-4" cx="395.53" cy="82.85" r="3.38"/><circle class="cls-4" cx="453.16" cy="147.31" r="3.38"/><circle class="cls-4" cx="447.53" cy="120.03" r="3.38"/><circle class="cls-4" cx="422.93" cy="147.31" r="3.38"/><circle class="cls-4" cx="445.86" cy="59.14" r="3.38"/><circle class="cls-4" cx="422.93" cy="36.62" r="3.38"/><circle class="cls-4" cx="426.31" cy="52.38" r="3.38"/><circle class="cls-4" cx="348.78" cy="86.24" r="3.38"/><circle class="cls-4" cx="352.16" cy="114.8" r="3.38"/><circle class="cls-4" cx="447.53" cy="86.24" r="3.38"/><circle class="cls-4" cx="464.85" cy="111.42" r="3.38"/><circle class="cls-4" cx="395.53" cy="123.41" r="3.38"/><circle class="cls-4" cx="395.53" cy="51.85" r="3.38"/><circle class="cls-4" cx="392.15" cy="159.31" r="3.38"/><circle class="cls-4" cx="402.88" cy="143.93" r="3.38"/><circle class="cls-4" cx="445.33" cy="48.47" r="3.38"/><circle class="cls-4" cx="469.73" cy="89.62" r="3.38"/><circle class="cls-4" cx="440.82" cy="153.52" r="3.38"/><circle class="cls-4" cx="419.55" cy="91.96" r="3.38"/><circle class="cls-4" cx="469.73" cy="126.8" r="3.38"/><circle class="cls-4" cx="392.15" cy="110.42" r="3.38"/><circle class="cls-4" cx="419.55" cy="111.42" r="3.38"/><circle class="cls-4" cx="441.95" cy="107.04" r="3.38"/><circle class="cls-4" cx="392.15" cy="168.99" r="3.38"/><circle class="cls-4" cx="399.5" cy="42.29" r="3.38"/><circle class="cls-4" cx="378.83" cy="49.47" r="3.38"/><circle class="cls-4" cx="429.69" cy="172.38" r="3.38"/><circle class="cls-4" cx="441.95" cy="72.69" r="3.38"/><circle class="cls-4" cx="380.14" cy="133.48" r="3.38"/><circle class="cls-4" cx="376.76" cy="95.34" r="3.38"/><circle class="cls-4" cx="438.56" cy="134.48" r="3.38"/><circle class="cls-4" cx="360.88" cy="69.31" r="3.38"/><circle class="cls-4" cx="433.07" cy="93" r="3.38"/><circle class="cls-4" cx="464.85" cy="69.31" r="3.38"/><circle class="cls-4" cx="352.16" cy="134.48" r="3.38"/><circle class="cls-5" cx="375.15" cy="52.38" r="3.38"/><circle class="cls-5" cx="394.46" cy="52.85" r="3.38"/><circle class="cls-5" cx="395.77" cy="86.24" r="3.38"/><circle class="cls-5" cx="395.05" cy="118.19" r="3.38"/><circle class="cls-5" cx="352.16" cy="118.19" r="3.38"/><circle class="cls-5" cx="371.77" cy="152.55" r="3.38"/><circle class="cls-5" cx="371.77" cy="116.65" r="3.38"/><circle class="cls-5" cx="371.77" cy="86.24" r="3.38"/><circle class="cls-5" cx="447.33" cy="149.17" r="3.38"/><circle class="cls-5" cx="447.33" cy="118.65" r="3.38"/><circle class="cls-5" cx="421.44" cy="118.19" r="3.38"/><circle class="cls-5" cx="447.33" cy="52.85" r="3.38"/><circle class="cls-5" cx="447.33" cy="86.24" r="3.38"/><circle class="cls-5" cx="421.44" cy="150.13" r="3.38"/><circle class="cls-5" cx="421.82" cy="52.85" r="3.38"/><circle class="cls-5" cx="421.82" cy="86.24" r="3.38"/><circle class="cls-5" cx="395.77" cy="151.13" r="3.38"/><circle class="cls-5" cx="468.32" cy="118.65" r="3.38"/><path class="cls-1" d="M579.76,9.59c16.82-5.95,72.63,54.14,61.54,112.82C634.6,157.86,604,190,588.74,185.23c-13.52-4.21-14.16-37-15.39-101.28C572.43,36.22,572,12.35,579.76,9.59Z"/><ellipse class="cls-1" cx="573.15" cy="100.35" rx="76.18" ry="99.35"/><path class="cls-2" d="M553.46,186.7c-3.49,0-7.53-1.33-11.88-3.94-14.8-8.89-33.3-33-38.43-60.16-4.56-24.1,2.4-46.53,9-61.1,7.63-16.75,19.42-32.94,31.53-43.33C552.84,10.34,561,6.87,566,8.65c8.47,3,8,25.66,7.08,75.31-1.25,65.12-1.88,97.8-16.09,102.23A11.91,11.91,0,0,1,553.46,186.7ZM563.1,10.18c-4.43,0-11,3.39-18.09,9.51-11.9,10.2-23.49,26.15-31,42.64-6.51,14.3-13.35,36.31-8.89,59.9,5,26.59,23.08,50.15,37.5,58.82,5.4,3.24,10.17,4.36,13.79,3.23,12.83-4,13.49-38.22,14.68-100.35,0-1.9.24-11.94.48-32,.29-24.83.26-39-6.23-41.36A5.49,5.49,0,0,0,563.1,10.18Z"/><rect class="cls-3" x="496.97" y="1" width="152.36" height="199.71" rx="76.18" ry="76.18"/><line class="cls-3" x1="496.97" y1="167.42" x2="649.33" y2="167.42"/><line class="cls-3" x1="496.97" y1="134.14" x2="649.33" y2="134.14"/><line class="cls-3" x1="496.97" y1="100.85" x2="649.33" y2="100.85"/><line class="cls-3" x1="496.97" y1="67.57" x2="649.33" y2="67.57"/><line class="cls-3" x1="496.97" y1="34.28" x2="649.33" y2="34.28"/><line class="cls-3" x1="623.94" y1="1" x2="623.94" y2="200.71"/><line class="cls-3" x1="598.55" y1="1" x2="598.55" y2="200.71"/><line class="cls-3" x1="573.15" y1="1" x2="573.15" y2="200.71"/><line class="cls-3" x1="547.76" y1="1" x2="547.76" y2="200.71"/><line class="cls-3" x1="522.36" y1="1" x2="522.36" y2="200.71"/><circle class="cls-5" cx="537.63" cy="52.37" r="6"/><circle class="cls-5" cx="556.93" cy="52.84" r="3.38"/><circle class="cls-5" cx="558.24" cy="86.22" r="3.38"/><circle class="cls-5" cx="557.53" cy="118.17" r="6"/><circle class="cls-5" cx="514.64" cy="118.17" r="6"/><circle class="cls-5" cx="534.25" cy="152.54" r="3.38"/><circle class="cls-5" cx="534.25" cy="116.64" r="3.38"/><circle class="cls-5" cx="534.25" cy="86.22" r="14"/><circle class="cls-5" cx="609.8" cy="149.16" r="6"/><circle class="cls-5" cx="609.8" cy="118.64" r="3.38"/><circle class="cls-5" cx="583.92" cy="118.17" r="6"/><circle class="cls-5" cx="609.8" cy="52.84" r="6"/><circle class="cls-5" cx="609.8" cy="86.22" r="9"/><circle class="cls-5" cx="583.92" cy="150.12" r="3.38"/><circle class="cls-5" cx="584.3" cy="52.84" r="9"/><circle class="cls-5" cx="584.3" cy="86.22" r="9"/><circle class="cls-5" cx="558.24" cy="151.12" r="9"/><circle class="cls-5" cx="630.8" cy="118.64" r="6"/><text class="cls-6" transform="translate(47.44 248.64)"><tspan class="cls-7">g</tspan><tspan class="cls-8" x="6.64" y="0">r</tspan><tspan x="10.44" y="0">ou</tspan><tspan class="cls-9" x="23.64" y="0">p</tspan><tspan x="30.65" y="0">-le</tspan><tspan class="cls-10" x="43.18" y="0">v</tspan><tspan class="cls-11" x="48.83" y="0">el</tspan></text><text class="cls-6" transform="translate(211 252.07)">individuali<tspan class="cls-12" x="52.43" y="0">z</tspan><tspan x="57.48" y="0">ed</tspan><tspan class="cls-13" x="70.26" y="0">	</tspan></text><text class="cls-6" transform="translate(378.34 251.51)">ali<tspan class="cls-7" x="11.42" y="0">g</tspan><tspan x="18.06" y="0">nme</tspan><tspan class="cls-14" x="40.74" y="0">n</tspan><tspan x="47.35" y="0">t</tspan><tspan class="cls-15" x="51.32" y="0">	</tspan></text><text class="cls-6" transform="translate(499.64 252.07)">submodular <tspan class="cls-16" x="63.25" y="0">e</tspan><tspan x="69.23" y="0">xamplar clus</tspan><tspan class="cls-7" x="132.06" y="0">t</tspan><tspan class="cls-17" x="135.96" y="0">e</tspan><tspan class="cls-18" x="141.97" y="0">r</tspan><tspan x="145.94" y="0">ing</tspan></text></g></g></svg>