<svg xmlns="http://www.w3.org/2000/svg" xmlns:xlink="http://www.w3.org/1999/xlink" viewBox="0 0 523.72 202.86"><defs><style>.cls-1{fill:none;}.cls-2{fill:#fff;}.cls-2,.cls-3,.cls-4,.cls-6{stroke:#231f20;stroke-miterlimit:10;}.cls-3{fill:#00aeef;}.cls-4{fill:#ed1c24;}.cls-5{clip-path:url(#clip-path);}.cls-6,.cls-9{fill:#231f20;}.cls-7{clip-path:url(#clip-path-2);}.cls-8{clip-path:url(#clip-path-3);}.cls-9{font-size:12px;font-family:MyriadPro-Regular, Myriad Pro;}</style><clipPath id="clip-path" transform="translate(-0.08)"><rect class="cls-1" x="391.72" y="88.76" width="10.3" height="9.54"/></clipPath><clipPath id="clip-path-2" transform="translate(-0.08)"><rect class="cls-1" x="188.8" y="93.76" width="10.3" height="9.54"/></clipPath><clipPath id="clip-path-3" transform="translate(-0.08)"><rect class="cls-1" y="96.45" width="10.3" height="9.54"/></clipPath></defs><title>semi-example-1</title><g id="Layer_2" data-name="Layer 2"><g id="Layer_1-2" data-name="Layer 1"><circle class="cls-2" cx="440.04" cy="25.5" r="3.85"/><circle class="cls-2" cx="443.88" cy="115.24" r="3.85"/><circle class="cls-3" cx="478.5" cy="142.17" r="3.85"/><circle class="cls-3" cx="452.34" cy="131.91" r="3.85"/><circle class="cls-4" cx="452.34" cy="12.68" r="3.85"/><circle class="cls-2" cx="463.88" cy="29.35" r="3.85"/><circle class="cls-4" cx="443.88" cy="47.29" r="3.85"/><circle class="cls-2" cx="460.04" cy="146.01" r="3.85"/><circle class="cls-2" cx="469.65" cy="125.5" r="3.85"/><circle class="cls-2" cx="513.11" cy="139.6" r="3.85"/><circle class="cls-2" cx="486.96" cy="129.35" r="3.85"/><circle class="cls-2" cx="494.65" cy="143.45" r="3.85"/><circle class="cls-2" cx="470.42" cy="17.17" r="3.85"/><circle class="cls-2" cx="482.73" cy="4.35" r="3.85"/><circle class="cls-2" cx="494.27" cy="21.01" r="3.85"/><circle class="cls-4" cx="474.27" cy="38.96" r="3.85"/><circle class="cls-4" cx="419.52" cy="94.41" r="3.85"/><circle class="cls-2" cx="451.77" cy="100.82" r="3.85"/><circle class="cls-2" cx="469.07" cy="94.41" r="3.85"/><g class="cls-5"><path d="M397.74,91.88c.11-.53.56-2.38,1.92-2.38a1.89,1.89,0,0,1,1,.26,1.16,1.16,0,0,0-.94,1.09.7.7,0,0,0,.74.71,1.11,1.11,0,0,0,1.05-1.17c0-1-1.15-1.33-1.81-1.33a2.5,2.5,0,0,0-2,1.53,2.15,2.15,0,0,0-2.1-1.53c-2,0-3.14,2.6-3.14,3.1,0,.2.2.2.24.2s.21,0,.25-.22c.66-2.14,1.94-2.64,2.61-2.64.37,0,1.05.18,1.05,1.35a30.3,30.3,0,0,1-1.05,4.8c-.31,1.25-1,2.1-1.85,2.1a1.79,1.79,0,0,1-1-.27,1.13,1.13,0,0,0,.92-1.09.67.67,0,0,0-.72-.7,1.12,1.12,0,0,0-1.07,1.17c0,.93,1,1.33,1.83,1.33,1.28,0,2-1.41,2-1.53a2.18,2.18,0,0,0,2.1,1.53c2,0,3.12-2.6,3.12-3.11a.2.2,0,0,0-.23-.2c-.18,0-.22.08-.26.22-.64,2.16-2,2.65-2.59,2.65s-1.07-.65-1.07-1.34a8.39,8.39,0,0,1,.33-1.77l.67-2.76" transform="translate(-0.08)"/></g><circle class="cls-2" cx="237.11" cy="30.5" r="3.85"/><circle class="cls-2" cx="240.96" cy="120.24" r="3.85"/><circle class="cls-3" cx="275.57" cy="147.17" r="3.85"/><circle class="cls-3" cx="249.42" cy="136.91" r="3.85"/><circle class="cls-4" cx="249.42" cy="17.68" r="3.85"/><circle class="cls-2" cx="260.96" cy="34.35" r="3.85"/><circle class="cls-4" cx="240.96" cy="52.29" r="3.85"/><circle class="cls-2" cx="257.11" cy="151.01" r="3.85"/><circle class="cls-2" cx="266.73" cy="130.5" r="3.85"/><circle class="cls-2" cx="310.19" cy="144.6" r="3.85"/><circle class="cls-2" cx="284.04" cy="134.35" r="3.85"/><circle class="cls-2" cx="291.73" cy="148.45" r="3.85"/><circle class="cls-2" cx="267.5" cy="22.17" r="3.85"/><circle class="cls-2" cx="279.8" cy="9.35" r="3.85"/><circle class="cls-2" cx="291.34" cy="26.01" r="3.85"/><circle class="cls-4" cx="271.34" cy="43.96" r="3.85"/><circle class="cls-6" cx="216.6" cy="99.41" r="3.85"/><circle class="cls-2" cx="248.84" cy="105.82" r="3.85"/><circle class="cls-2" cx="266.15" cy="99.41" r="3.85"/><g class="cls-7"><path d="M194.81,96.88c.12-.53.57-2.38,1.93-2.38a1.86,1.86,0,0,1,1,.26,1.16,1.16,0,0,0-.93,1.09.69.69,0,0,0,.74.71,1.11,1.11,0,0,0,1-1.17c0-1-1.15-1.33-1.81-1.33a2.5,2.5,0,0,0-2,1.53,2.16,2.16,0,0,0-2.11-1.53c-2,0-3.13,2.6-3.13,3.1a.2.2,0,0,0,.23.2c.16,0,.22,0,.26-.22.66-2.14,1.94-2.64,2.6-2.64.37,0,1.06.18,1.06,1.35a30.93,30.93,0,0,1-1.06,4.8c-.31,1.25-1,2.1-1.85,2.1a1.78,1.78,0,0,1-1-.27,1.13,1.13,0,0,0,.92-1.09.67.67,0,0,0-.72-.7,1.12,1.12,0,0,0-1.07,1.17c0,.93,1,1.33,1.82,1.33,1.29,0,2-1.41,2.05-1.53a2.16,2.16,0,0,0,2.1,1.53c2,0,3.12-2.6,3.12-3.11,0-.2-.18-.2-.24-.2s-.21.08-.25.22c-.64,2.16-2,2.65-2.59,2.65s-1.07-.65-1.07-1.34a8.39,8.39,0,0,1,.33-1.77l.66-2.76" transform="translate(-0.08)"/></g><circle class="cls-4" cx="48.31" cy="33.19" r="3.85"/><circle class="cls-3" cx="52.16" cy="122.94" r="3.85"/><circle class="cls-3" cx="86.78" cy="149.86" r="3.85"/><circle class="cls-3" cx="60.62" cy="139.6" r="3.85"/><circle class="cls-4" cx="60.62" cy="20.37" r="3.85"/><circle class="cls-2" cx="72.16" cy="37.04" r="3.85"/><circle class="cls-4" cx="52.16" cy="54.99" r="3.85"/><circle class="cls-2" cx="68.31" cy="153.71" r="3.85"/><circle class="cls-2" cx="77.93" cy="133.19" r="3.85"/><circle class="cls-2" cx="121.39" cy="147.29" r="3.85"/><circle class="cls-2" cx="95.24" cy="137.04" r="3.85"/><circle class="cls-2" cx="102.93" cy="151.14" r="3.85"/><circle class="cls-2" cx="78.7" cy="24.86" r="3.85"/><circle class="cls-2" cx="91.01" cy="12.04" r="3.85"/><circle class="cls-2" cx="102.54" cy="28.71" r="3.85"/><circle class="cls-4" cx="82.54" cy="46.65" r="3.85"/><circle class="cls-3" cx="27.8" cy="102.1" r="3.85"/><circle class="cls-3" cx="60.04" cy="108.51" r="3.85"/><circle class="cls-2" cx="77.35" cy="102.1" r="3.85"/><g class="cls-8"><path d="M6,99.57c.12-.52.57-2.38,1.93-2.38a1.89,1.89,0,0,1,1,.26A1.16,1.16,0,0,0,8,98.54a.69.69,0,0,0,.74.71,1.11,1.11,0,0,0,1-1.17c0-1-1.15-1.33-1.81-1.33a2.52,2.52,0,0,0-2,1.53,2.16,2.16,0,0,0-2.11-1.53c-2,0-3.13,2.6-3.13,3.1a.2.2,0,0,0,.23.2c.16,0,.22,0,.26-.22.66-2.13,1.94-2.64,2.61-2.64.37,0,1.05.18,1.05,1.35a30.06,30.06,0,0,1-1.05,4.8c-.32,1.25-1,2.1-1.85,2.1a1.85,1.85,0,0,1-1-.26,1.14,1.14,0,0,0,.92-1.09.68.68,0,0,0-.72-.71,1.13,1.13,0,0,0-1.07,1.17c0,.93,1,1.33,1.83,1.33,1.28,0,2-1.41,2-1.53a2.17,2.17,0,0,0,2.1,1.53c2,0,3.12-2.6,3.12-3.1a.2.2,0,0,0-.24-.21c-.17,0-.21.09-.25.23-.64,2.15-2,2.64-2.59,2.64S5,104.79,5,104.11a8.35,8.35,0,0,1,.33-1.78L6,99.57" transform="translate(-0.08)"/></g><text class="cls-9" transform="translate(73.51 199.86)">A</text><text class="cls-9" transform="translate(279.8 199.86)">B</text><text class="cls-9" transform="translate(474.27 199.86)">C</text><circle class="cls-2" cx="105.62" cy="51.14" r="3.85"/><circle class="cls-2" cx="117.93" cy="38.32" r="3.85"/><circle class="cls-2" cx="129.47" cy="54.99" r="3.85"/><circle class="cls-2" cx="294.42" cy="47.29" r="3.85"/><circle class="cls-2" cx="306.73" cy="34.47" r="3.85"/><circle class="cls-2" cx="318.27" cy="51.14" r="3.85"/><circle class="cls-2" cx="495.53" cy="43.45" r="3.85"/><circle class="cls-2" cx="507.83" cy="30.63" r="3.85"/><circle class="cls-2" cx="519.37" cy="47.29" r="3.85"/></g></g></svg>